<svg width="69" height="63" viewBox="0 0 69 63" fill="none" xmlns="http://www.w3.org/2000/svg">
<path d="M0 15.9C0 10.3938 0 7.64071 1.05455 5.53021C2.02249 3.59308 3.59308 2.02249 5.53021 1.05455C7.64071 0 10.3938 0 15.9 0H37.5C48.2296 0 53.5944 0 57.7282 2.00503C61.7702 3.96555 65.0344 7.22981 66.995 11.2718C69 15.4056 69 20.7704 69 31.5C69 42.2296 69 47.5944 66.995 51.7282C65.0344 55.7702 61.7702 59.0345 57.7282 60.995C53.5944 63 48.2296 63 37.5 63H31.8C20.7876 63 15.2814 63 11.0604 60.8909C7.18616 58.955 4.04497 55.8138 2.10911 51.9396C0 47.7186 0 42.2124 0 31.2V15.9Z" fill="url(#paint0_linear_153_5130)"/>
<defs>
<linearGradient id="paint0_linear_153_5130" x1="9.45135" y1="10.7987" x2="56.9719" y2="59.0645" gradientUnits="userSpaceOnUse">
<stop stop-color="#F6AAA2"/>
<stop offset="1" stop-color="#FF557C"/>
</linearGradient>
</defs>
</svg>
